<svg xmlns="http://www.w3.org/2000/svg" xmlns:xlink="http://www.w3.org/1999/xlink" version="1.1" x="0px" y="0px" viewBox="0 0 90 112.5" enable-background="new 0 0 90 90" xml:space="preserve"><path d="M76.987,60.421c-1.575-4.03-8.796-5.445-9.643,0c-0.155,1-0.264,1.964-0.339,2.941c-6.683,0.35-13.377,0.601-20.062,0.634  c-3.382,0.017-6.664,0.144-10.028,0.485c-1.189,0.121-2.566,0.328-3.97,0.446c3.116-4.684,6.351-9.478,10.644-12.732  c4.238-3.213,10.151-3.426,9.061-10.326c-0.663-4.194-7.36-7.07-10.602-8.995c-2.739-1.627-5.577-3.072-8.29-4.746  c-1.059-0.653-2.021-1.377-2.941-2.169c0.46,0.029,0.878,0.058,1.214,0.075C35.758,26.22,39.43,26.902,43.166,27  c7.416,0.195,14.832,0.237,22.249,0.246c0,0.168,0.001,0.336,0.001,0.504c0.002,2.726,2.272,5,5,5c2.726,0,5-2.274,5-5V22.5  c0-2.655-2.163-4.866-4.794-4.979c-0.508-0.173-1.075-0.271-1.706-0.271c-9.587,0-19.267,0.256-28.836-0.396  c-5.581-0.38-17.99-3.532-21.669,2.748c-3.657,6.244,4.788,13.314,9.149,16.405c2.966,2.102,6.29,3.705,9.441,5.502  c0.811,0.462,1.594,0.966,2.381,1.462c-2.408,1.373-4.549,3.522-6.374,5.53c-4.844,5.327-8.588,11.732-12.91,17.476  c-1.596,2.12-0.411,5.67,1.794,6.841c6.287,3.34,13.423,1.635,20.173,1.211c10.412-0.655,20.917-0.4,31.351-1.028  c2.739-0.165,4.974-2.15,5-5C78.441,65.314,77.966,62.923,76.987,60.421z"/>
</svg>